<?xml version="1.0" standalone="no"?>
<!DOCTYPE svg PUBLIC "-//W3C//DTD SVG 20010904//EN"
 "http://www.w3.org/TR/2001/REC-SVG-20010904/DTD/svg10.dtd">
<svg version="1.0" xmlns="http://www.w3.org/2000/svg"
 width="260.000000pt" height="260.000000pt" viewBox="0 0 260.000000 260.000000"
 preserveAspectRatio="xMidYMid meet">
<metadata>
Created by potrace 1.11, written by Peter Selinger 2001-2013
</metadata>
<g transform="translate(0.000000,260.000000) scale(0.100000,-0.100000)"
fill="#000000" stroke="none">
<path d="M1028 2426 c-1 -2 -91 -6 -198 -10 -107 -3 -211 -8 -230 -11 -19 -2
-57 -7 -84 -11 -57 -7 -61 -7 -147 -28 -206 -48 -357 -146 -295 -191 18 -13
56 -9 56 6 0 5 7 5 17 2 11 -4 14 -3 9 5 -4 7 -1 12 8 12 8 0 17 9 21 19 10
34 108 56 340 78 103 10 510 10 598 0 153 -17 297 -46 397 -81 226 -79 301
-182 232 -318 -31 -59 -143 -174 -282 -290 -126 -104 -143 -117 -405 -316
-320 -242 -494 -384 -614 -502 -183 -180 -235 -368 -129 -467 31 -29 123 -70
178 -79 92 -15 208 -7 309 21 87 25 82 48 -19 80 -172 55 -233 105 -239 196
-6 95 47 186 189 324 125 121 110 107 251 225 219 183 262 214 289 212 13 -1
49 5 79 14 125 36 402 67 446 50 15 -5 15 -8 1 -28 -9 -13 -91 -99 -184 -193
-205 -208 -329 -346 -356 -394 -5 -9 -12 -18 -16 -21 -11 -9 -86 -135 -108
-182 -12 -26 -24 -62 -28 -80 -42 -212 68 -306 366 -312 114 -3 251 13 390 44
25 6 55 12 68 15 13 2 31 6 40 9 9 3 28 7 42 10 143 27 556 168 545 186 -5 8
-75 5 -140 -5 -22 -4 -51 -8 -65 -10 -14 -1 -65 -10 -115 -19 -49 -9 -103 -18
-120 -21 -16 -3 -68 -13 -115 -22 -87 -16 -97 -17 -185 -30 -87 -12 -250 -6
-310 11 -62 19 -120 67 -131 111 -19 77 20 220 91 331 55 85 217 286 305 377
223 232 238 253 226 301 -5 19 -15 27 -41 32 -53 10 -206 -4 -360 -31 -64 -12
-153 -39 -215 -66 -81 -36 -84 -39 143 141 263 207 399 345 447 452 40 90 12
193 -68 256 -68 53 -235 118 -352 137 -19 3 -55 11 -79 16 -24 5 -65 12 -90
15 -25 3 -59 7 -76 9 -16 3 -82 7 -145 10 -63 4 -120 8 -127 10 -6 2 -13 2
-15 1z"/>
<path d="M1692 881 c-60 -21 -97 -50 -83 -64 6 -6 41 -12 78 -14 37 -2 74 -5
81 -8 25 -9 10 -35 -44 -77 -139 -106 -178 -148 -152 -164 20 -12 86 19 161
75 160 120 217 184 200 227 -15 39 -156 54 -241 25z"/>
</g>
</svg>
